<svg xmlns="http://www.w3.org/2000/svg" xmlns:xlink="http://www.w3.org/1999/xlink" width="40" zoomAndPan="magnify" viewBox="0 0 30 30.000001" height="40" preserveAspectRatio="xMidYMid meet" version="1.0"><defs><clipPath id="43b47cf2c5"><path d="M 0.484375 0 L 15 0 L 15 15 L 0.484375 15 Z M 0.484375 0 " clip-rule="nonzero"/></clipPath><clipPath id="d7362b36df"><path d="M 0.484375 14 L 15 14 L 15 29.03125 L 0.484375 29.03125 Z M 0.484375 14 " clip-rule="nonzero"/></clipPath><clipPath id="10fb1b3daa"><path d="M 14 0 L 29.515625 0 L 29.515625 15 L 14 15 Z M 14 0 " clip-rule="nonzero"/></clipPath><clipPath id="b18814e127"><path d="M 0.484375 14.515625 L 15 14.515625 L 15 29.03125 L 0.484375 29.03125 Z M 0.484375 14.515625 " clip-rule="nonzero"/></clipPath></defs><g clip-path="url(#43b47cf2c5)"><path fill="#5d30d9" d="M 0.511719 0 L 14.992188 0 L 14.992188 14.515625 L 0.511719 14.515625 Z M 0.511719 0 " fill-opacity="1" fill-rule="nonzero"/></g><g clip-path="url(#d7362b36df)"><path fill="#000000" d="M 0.511719 14.515625 L 14.992188 14.515625 L 14.992188 29.03125 L 0.511719 29.03125 Z M 0.511719 14.515625 " fill-opacity="1" fill-rule="nonzero"/></g><g clip-path="url(#10fb1b3daa)"><path fill="#e0423e" d="M 14.992188 0 L 29.476562 0 L 29.476562 14.515625 L 14.992188 14.515625 Z M 14.992188 0 " fill-opacity="1" fill-rule="nonzero"/></g><g clip-path="url(#b18814e127)"><path fill="#ffffff" d="M 0.484375 14.515625 L 15 14.515625 L 15 29.03125 L 0.484375 29.03125 Z M 0.484375 14.515625 " fill-opacity="1" fill-rule="nonzero"/></g></svg>