<svg width="644" height="32" viewBox="0 0 644 32" fill="none" xmlns="http://www.w3.org/2000/svg">
<g clip-path="url(#clip0_430_1736)">
<mask id="mask0_430_1736" style="mask-type:luminance" maskUnits="userSpaceOnUse" x="0" y="0" width="644" height="32">
<path d="M644 0H0V31.1111H644V0Z" fill="white"/>
</mask>
<g mask="url(#mask0_430_1736)">
<path d="M0 12.4445C0 8.08848 0 5.9105 0.847727 4.24674C1.59341 2.78326 2.78326 1.59341 4.24674 0.847727C5.9105 0 8.08848 0 12.4444 0H631.555C635.911 0 638.089 0 639.753 0.847727C641.217 1.59341 642.407 2.78326 643.152 4.24674C644 5.9105 644 8.08848 644 12.4444V31.1111H0V12.4445Z" fill="#25334D"/>
<mask id="mask1_430_1736" style="mask-type:luminance" maskUnits="userSpaceOnUse" x="556" y="5" width="76" height="20">
<path d="M631.557 5.44531H556.891V24.112H631.557V5.44531Z" fill="white"/>
</mask>
<g mask="url(#mask1_430_1736)">
<path d="M566.231 16.6239C566.559 16.6239 566.83 16.353 566.83 16.0305V9.54144L566.785 8.58679L567.178 9.05767L568.081 10.0188C568.184 10.1349 568.332 10.1929 568.48 10.1929C568.777 10.1929 569.022 9.98007 569.022 9.6769C569.022 9.51564 568.957 9.39953 568.848 9.28988L566.688 7.20641C566.534 7.0516 566.385 7 566.231 7C566.069 7 565.928 7.0516 565.773 7.20641L563.607 9.28988C563.498 9.39953 563.433 9.51564 563.433 9.6769C563.433 9.98007 563.672 10.1929 563.968 10.1929C564.116 10.1929 564.271 10.1349 564.374 10.0188L565.277 9.05767L565.676 8.58034L565.625 9.54144V16.0305C565.625 16.353 565.895 16.6239 566.231 16.6239ZM562.511 21.7778H569.937C571.336 21.7778 572.058 21.0553 572.058 19.675V13.3343C572.058 11.9539 571.336 11.2314 569.937 11.2314H568.197V12.5151H569.853C570.44 12.5151 570.775 12.8247 570.775 13.4439V19.5589C570.775 20.1781 570.44 20.4877 569.853 20.4877H562.595C562.002 20.4877 561.674 20.1781 561.674 19.5589V13.4439C561.674 12.8247 562.002 12.5151 562.595 12.5151H564.271V11.2314H562.511C561.119 11.2314 560.391 11.9474 560.391 13.3343V19.675C560.391 21.0553 561.119 21.7778 562.511 21.7778Z" fill="#B7B7B7"/>
<path d="M593.444 20.221C593.854 20.221 594.186 19.8883 594.186 19.5108V15.5059H598.154C598.551 15.5059 598.889 15.1796 598.889 14.7765C598.889 14.3799 598.551 14.0472 598.154 14.0472H594.186V10.0422C594.186 9.65832 593.854 9.33203 593.444 9.33203C593.041 9.33203 592.703 9.65832 592.703 10.0422V14.0472H588.735C588.351 14.0472 588 14.3799 588 14.7765C588 15.1796 588.351 15.5059 588.735 15.5059H592.703V19.5108C592.703 19.8883 593.041 20.221 593.444 20.221Z" fill="#B7B7B7"/>
<path d="M617.349 18.6923H618.445V19.666C618.445 21.046 619.174 21.7683 620.567 21.7683H627.106C628.498 21.7683 629.227 21.046 629.227 19.666V13.0819C629.227 11.7019 628.498 10.9797 627.106 10.9797H626.009V10.0124C626.009 8.63241 625.281 7.91016 623.888 7.91016H617.349C615.949 7.91016 615.227 8.63241 615.227 10.0124V16.59C615.227 17.9765 615.949 18.6923 617.349 18.6923ZM617.433 17.409C616.839 17.409 616.51 17.0994 616.51 16.4739V10.1285C616.51 9.50298 616.839 9.19989 617.433 9.19989H623.804C624.391 9.19989 624.726 9.50298 624.726 10.1285V10.9797H620.567C619.174 10.9797 618.445 11.7019 618.445 13.0819V17.409H617.433ZM620.65 20.4785C620.057 20.4785 619.735 20.169 619.735 19.5499V13.198C619.735 12.5789 620.057 12.2694 620.65 12.2694H627.022C627.615 12.2694 627.944 12.5789 627.944 13.198V19.5499C627.944 20.169 627.615 20.4785 627.022 20.4785H620.65Z" fill="#B7B7B7"/>
</g>
<mask id="mask2_430_1736" style="mask-type:luminance" maskUnits="userSpaceOnUse" x="74" y="5" width="77" height="20">
<path d="M150.886 5.44531H74.6641V24.112H150.886V5.44531Z" fill="white"/>
</mask>
<g mask="url(#mask2_430_1736)">
<path d="M78.3428 21.4025H89.3894C90.7903 21.4025 91.5199 20.6795 91.5199 19.2978V11.4407C91.5199 10.0591 90.7903 9.33594 89.3894 9.33594H78.3428C76.9482 9.33594 76.2188 10.0526 76.2188 11.4407V19.2978C76.2188 20.6795 76.9482 21.4025 78.3428 21.4025ZM78.4268 20.1178C77.8328 20.1178 77.5036 19.8079 77.5036 19.1816V11.5569C77.5036 10.9306 77.8328 10.6208 78.4268 10.6208H81.3708V20.1178H78.4268ZM89.3054 10.6208C89.8994 10.6208 90.2287 10.9306 90.2287 11.5569V19.1816C90.2287 19.8079 89.8994 20.1178 89.3054 20.1178H82.591V10.6208H89.3054ZM80.1054 12.9837C80.3378 12.9837 80.5314 12.7836 80.5314 12.5641C80.5314 12.3445 80.3378 12.1509 80.1054 12.1509H78.7819C78.5495 12.1509 78.3558 12.3445 78.3558 12.5641C78.3558 12.7836 78.5495 12.9837 78.7819 12.9837H80.1054ZM80.1054 14.7204C80.3378 14.7204 80.5314 14.5267 80.5314 14.3008C80.5314 14.0813 80.3378 13.8876 80.1054 13.8876H78.7819C78.5495 13.8876 78.3558 14.0813 78.3558 14.3008C78.3558 14.5267 78.5495 14.7204 78.7819 14.7204H80.1054ZM80.1054 16.4507C80.3378 16.4507 80.5314 16.2634 80.5314 16.0375C80.5314 15.818 80.3378 15.6307 80.1054 15.6307H78.7819C78.5495 15.6307 78.3558 15.818 78.3558 16.0375C78.3558 16.2634 78.5495 16.4507 78.7819 16.4507H80.1054Z" fill="#B7B7B7"/>
<path d="M116.196 20.2995L111.468 15.6754C111.304 15.5113 111.219 15.329 111.219 15.1163C111.219 14.9037 111.304 14.7092 111.474 14.5512L116.202 9.93316C116.336 9.79948 116.506 9.72656 116.7 9.72656C117.107 9.72656 117.423 10.0426 117.423 10.4436C117.423 10.638 117.344 10.8264 117.204 10.9662L112.951 15.1103L117.204 19.2665C117.344 19.4063 117.423 19.5886 117.423 19.7891C117.423 20.1901 117.107 20.5061 116.7 20.5061C116.506 20.5061 116.336 20.4332 116.196 20.2995Z" fill="#B7B7B7"/>
<path d="M139.551 20.5061C139.752 20.5061 139.916 20.4332 140.056 20.2995L144.783 15.6815C144.947 15.5113 145.032 15.3351 145.032 15.1163C145.032 14.9037 144.953 14.7153 144.783 14.5573L140.056 9.93316C139.916 9.79948 139.752 9.72656 139.551 9.72656C139.144 9.72656 138.828 10.0426 138.828 10.4436C138.828 10.638 138.913 10.8264 139.047 10.9662L143.307 15.1224L139.047 19.2665C138.907 19.4124 138.828 19.5886 138.828 19.7891C138.828 20.1901 139.144 20.5061 139.551 20.5061Z" fill="#5A5A5A"/>
</g>
<mask id="mask3_430_1736" style="mask-type:luminance" maskUnits="userSpaceOnUse" x="15" y="10" width="41" height="11">
<path d="M55.9991 10.8906H15.5547V20.224H55.9991V10.8906Z" fill="white"/>
</mask>
<g mask="url(#mask3_430_1736)">
<path d="M20.2214 20.224C22.7987 20.224 24.888 18.1346 24.888 15.5573C24.888 12.98 22.7987 10.8906 20.2214 10.8906C17.644 10.8906 15.5547 12.98 15.5547 15.5573C15.5547 18.1346 17.644 20.224 20.2214 20.224Z" fill="#ED6A5E"/>
<path d="M20.2231 19.8368C22.5856 19.8368 24.5009 17.9216 24.5009 15.559C24.5009 13.1965 22.5856 11.2812 20.2231 11.2812C17.8605 11.2812 15.9453 13.1965 15.9453 15.559C15.9453 17.9216 17.8605 19.8368 20.2231 19.8368Z" stroke="black" stroke-opacity="0.1" stroke-width="0.777778"/>
<path d="M35.776 20.224C38.3534 20.224 40.4427 18.1346 40.4427 15.5573C40.4427 12.98 38.3534 10.8906 35.776 10.8906C33.1987 10.8906 31.1094 12.98 31.1094 15.5573C31.1094 18.1346 33.1987 20.224 35.776 20.224Z" fill="#F4BD50"/>
<path d="M35.7778 19.8368C38.1403 19.8368 40.0556 17.9216 40.0556 15.559C40.0556 13.1965 38.1403 11.2812 35.7778 11.2812C33.4152 11.2812 31.5 13.1965 31.5 15.559C31.5 17.9216 33.4152 19.8368 35.7778 19.8368Z" stroke="black" stroke-opacity="0.1" stroke-width="0.777778"/>
<path d="M51.3307 20.224C53.9081 20.224 55.9974 18.1346 55.9974 15.5573C55.9974 12.98 53.9081 10.8906 51.3307 10.8906C48.7534 10.8906 46.6641 12.98 46.6641 15.5573C46.6641 18.1346 48.7534 20.224 51.3307 20.224Z" fill="#61C454"/>
<path d="M51.3325 19.8368C53.695 19.8368 55.6102 17.9216 55.6102 15.559C55.6102 13.1965 53.695 11.2812 51.3325 11.2812C48.9699 11.2812 47.0547 13.1965 47.0547 15.559C47.0547 17.9216 48.9699 19.8368 51.3325 19.8368Z" stroke="black" stroke-opacity="0.1" stroke-width="0.777778"/>
</g>
<path d="M220.89 21.7769C221.006 21.7769 221.179 21.7379 221.34 21.6469C225.047 19.6132 226.334 18.6711 226.334 16.306V11.4005C226.334 10.6208 226.032 10.3414 225.388 10.062C224.674 9.75671 222.273 8.91205 221.572 8.67165C221.36 8.60017 221.109 8.55469 220.89 8.55469C220.671 8.55469 220.42 8.61317 220.208 8.67165C219.506 8.87306 217.106 9.76321 216.391 10.062C215.748 10.3349 215.445 10.6208 215.445 11.4005V16.306C215.445 18.6711 216.739 19.6002 220.433 21.6469C220.6 21.7379 220.774 21.7769 220.89 21.7769ZM221.237 9.86717C222.08 10.205 223.915 10.8612 224.88 11.2056C225.06 11.2771 225.105 11.3745 225.105 11.6084V16.0656C225.105 17.9694 224.159 18.4827 221.257 20.25C221.076 20.3604 220.986 20.3994 220.896 20.3994V9.7957C220.986 9.7957 221.083 9.81519 221.237 9.86717Z" fill="#B7B7B7"/>
<mask id="mask4_430_1736" style="mask-type:luminance" maskUnits="userSpaceOnUse" x="234" y="4" width="176" height="23">
<path d="M409.887 4.66797H234.109V26.4458H409.887V4.66797Z" fill="white"/>
</mask>
<g mask="url(#mask4_430_1736)">
<path d="M234.109 12.1346C234.109 9.52105 234.109 8.21426 234.618 7.21601C235.065 6.33792 235.779 5.62401 236.657 5.1766C237.655 4.66797 238.962 4.66797 241.576 4.66797H402.42C405.034 4.66797 406.341 4.66797 407.339 5.1766C408.217 5.62401 408.931 6.33792 409.378 7.21601C409.887 8.21426 409.887 9.52105 409.887 12.1346V18.979C409.887 21.5926 409.887 22.8994 409.378 23.8977C408.931 24.7757 408.217 25.4897 407.339 25.9371C406.341 26.4457 405.034 26.4457 402.42 26.4457H241.576C238.962 26.4457 237.655 26.4457 236.657 25.9371C235.779 25.4897 235.065 24.7757 234.618 23.8977C234.109 22.8994 234.109 21.5926 234.109 18.979V12.1346Z" fill="#3C5175"/>
<mask id="mask5_430_1736" style="mask-type:luminance" maskUnits="userSpaceOnUse" x="395" y="10" width="11" height="12">
<path d="M405.611 10.1133H395.5V21.0022H405.611V10.1133Z" fill="white"/>
</mask>
<g mask="url(#mask5_430_1736)">
<path d="M400.426 15.3496C400.559 15.3496 400.663 15.3086 400.745 15.222L402.614 13.3398C402.714 13.2396 402.76 13.1302 402.76 13.0026C402.76 12.8796 402.71 12.7611 402.614 12.6699L400.745 10.7695C400.663 10.6784 400.559 10.6328 400.426 10.6328C400.18 10.6328 399.984 10.8379 399.984 11.0885C399.984 11.2116 400.03 11.3119 400.107 11.3984L401.197 12.4648C400.982 12.4329 400.764 12.4147 400.545 12.4147C398.289 12.4147 396.484 14.2194 396.484 16.4798C396.484 18.7402 398.303 20.5586 400.559 20.5586C402.819 20.5586 404.633 18.7402 404.633 16.4798C404.633 16.2064 404.441 16.0104 404.168 16.0104C403.904 16.0104 403.726 16.2064 403.726 16.4798C403.726 18.2389 402.318 19.6517 400.559 19.6517C398.804 19.6517 397.391 18.2389 397.391 16.4798C397.391 14.707 398.79 13.3034 400.545 13.3034C400.841 13.3034 401.115 13.3262 401.356 13.3672L400.112 14.5977C400.03 14.6797 399.984 14.78 399.984 14.903C399.984 15.1536 400.18 15.3496 400.426 15.3496Z" fill="#E3E3E3"/>
</g>
<path d="M247.995 10.168C246.387 10.168 245.078 11.4764 245.078 13.0847V14.8347H244.495C243.852 14.8347 243.328 15.3579 243.328 16.0014V20.668C243.328 21.3114 243.852 21.8347 244.495 21.8347H251.495C252.138 21.8347 252.662 21.3114 252.662 20.668V16.0014C252.662 15.3579 252.138 14.8347 251.495 14.8347H250.912V13.0847C250.912 11.4764 249.603 10.168 247.995 10.168ZM251.495 16.0014L251.496 20.668H244.495V16.0014H251.495ZM246.245 14.8347V13.0847C246.245 12.1199 247.03 11.3347 247.995 11.3347C248.96 11.3347 249.745 12.1199 249.745 13.0847V14.8347H246.245Z" fill="white"/>
<path d="M263.73 19L262.19 13.78H263.52L264.47 17.64H264.42L265.47 13.78H266.96L268.01 17.63L267.96 17.64L268.91 13.78H270.25L268.7 19H267.31L266.19 15.02H266.24L265.13 19H263.73ZM272.358 19L270.818 13.78H272.148L273.098 17.64H273.048L274.098 13.78H275.588L276.638 17.63L276.588 17.64L277.538 13.78H278.878L277.328 19H275.938L274.818 15.02H274.868L273.758 19H272.358ZM280.985 19L279.445 13.78H280.775L281.725 17.64H281.675L282.725 13.78H284.215L285.265 17.63L285.215 17.64L286.165 13.78H287.505L285.955 19H284.565L283.445 15.02H283.495L282.385 19H280.985ZM289.067 19.05C288.82 19.05 288.62 18.9767 288.467 18.83C288.313 18.6767 288.237 18.49 288.237 18.27C288.237 18.05 288.313 17.8667 288.467 17.72C288.62 17.5667 288.82 17.49 289.067 17.49C289.313 17.49 289.513 17.5667 289.667 17.72C289.82 17.8667 289.897 18.05 289.897 18.27C289.897 18.49 289.82 18.6767 289.667 18.83C289.513 18.9767 289.313 19.05 289.067 19.05ZM293.323 19.12C292.81 19.12 292.386 19.0467 292.053 18.9C291.72 18.7467 291.466 18.54 291.293 18.28C291.12 18.0133 291.023 17.7167 291.003 17.39H292.343C292.363 17.5167 292.41 17.6333 292.483 17.74C292.556 17.8467 292.66 17.9333 292.793 18C292.933 18.06 293.103 18.09 293.303 18.09C293.476 18.09 293.623 18.0667 293.743 18.02C293.87 17.9667 293.963 17.8967 294.023 17.81C294.09 17.7167 294.123 17.61 294.123 17.49C294.123 17.3367 294.08 17.2167 293.993 17.13C293.913 17.0433 293.796 16.9767 293.643 16.93C293.49 16.8767 293.3 16.8333 293.073 16.8C292.78 16.7533 292.51 16.6933 292.263 16.62C292.023 16.5467 291.816 16.4533 291.643 16.34C291.476 16.22 291.346 16.07 291.253 15.89C291.16 15.71 291.113 15.4933 291.113 15.24C291.113 14.94 291.196 14.67 291.363 14.43C291.53 14.19 291.77 14.0033 292.083 13.87C292.396 13.73 292.773 13.66 293.213 13.66C293.846 13.66 294.336 13.7967 294.683 14.07C295.036 14.3433 295.246 14.7167 295.313 15.19H294.043C294.003 15.0367 293.91 14.9167 293.763 14.83C293.623 14.7433 293.433 14.7 293.193 14.7C292.946 14.7 292.756 14.7467 292.623 14.84C292.49 14.9267 292.423 15.0467 292.423 15.2C292.423 15.3 292.453 15.3933 292.513 15.48C292.58 15.56 292.686 15.63 292.833 15.69C292.986 15.7433 293.193 15.7933 293.453 15.84C293.913 15.9067 294.29 15.9933 294.583 16.1C294.883 16.2067 295.106 16.3633 295.253 16.57C295.406 16.7767 295.48 17.06 295.473 17.42C295.473 17.7733 295.383 18.0767 295.203 18.33C295.03 18.5833 294.78 18.78 294.453 18.92C294.133 19.0533 293.756 19.12 293.323 19.12ZM298.554 19.12C298.147 19.12 297.807 19.05 297.534 18.91C297.267 18.7633 297.067 18.57 296.934 18.33C296.8 18.09 296.734 17.8267 296.734 17.54C296.734 17.2267 296.81 16.9533 296.964 16.72C297.124 16.48 297.36 16.2933 297.674 16.16C297.994 16.02 298.39 15.95 298.864 15.95H300.084C300.084 15.6833 300.057 15.4633 300.004 15.29C299.957 15.11 299.864 14.9767 299.724 14.89C299.59 14.8033 299.397 14.76 299.144 14.76C298.897 14.76 298.694 14.8133 298.534 14.92C298.38 15.02 298.284 15.17 298.244 15.37H296.924C296.964 15.0233 297.077 14.7233 297.264 14.47C297.457 14.2167 297.714 14.02 298.034 13.88C298.36 13.7333 298.73 13.66 299.144 13.66C299.63 13.66 300.044 13.74 300.384 13.9C300.724 14.06 300.984 14.29 301.164 14.59C301.344 14.89 301.434 15.26 301.434 15.7V19H300.304L300.154 18.22C300.08 18.3533 299.99 18.4767 299.884 18.59C299.784 18.6967 299.667 18.79 299.534 18.87C299.4 18.95 299.25 19.01 299.084 19.05C298.924 19.0967 298.747 19.12 298.554 19.12ZM298.874 18.08C299.034 18.08 299.18 18.0467 299.314 17.98C299.447 17.9133 299.564 17.8233 299.664 17.71C299.764 17.5967 299.844 17.4633 299.904 17.31C299.97 17.1567 300.014 16.99 300.034 16.81V16.78H299.014C298.82 16.78 298.66 16.8067 298.534 16.86C298.407 16.9133 298.314 16.99 298.254 17.09C298.194 17.1833 298.164 17.2933 298.164 17.42C298.164 17.56 298.19 17.68 298.244 17.78C298.304 17.8733 298.387 17.9467 298.494 18C298.607 18.0533 298.734 18.08 298.874 18.08ZM303.011 19V13.78H304.191L304.291 14.45C304.451 14.21 304.664 14.02 304.931 13.88C305.198 13.7333 305.498 13.66 305.831 13.66C306.078 13.66 306.298 13.6933 306.491 13.76C306.691 13.8267 306.864 13.9233 307.011 14.05C307.158 14.17 307.278 14.3233 307.371 14.51C307.564 14.2433 307.808 14.0367 308.101 13.89C308.394 13.7367 308.711 13.66 309.051 13.66C309.491 13.66 309.851 13.7467 310.131 13.92C310.418 14.0867 310.631 14.33 310.771 14.65C310.911 14.9633 310.981 15.3467 310.981 15.8V19H309.641V15.93C309.641 15.5633 309.561 15.2833 309.401 15.09C309.248 14.8967 309.018 14.8 308.711 14.8C308.511 14.8 308.331 14.85 308.171 14.95C308.018 15.0433 307.894 15.1833 307.801 15.37C307.714 15.55 307.671 15.77 307.671 16.03V19H306.321V15.93C306.321 15.5633 306.241 15.2833 306.081 15.09C305.928 14.8967 305.694 14.8 305.381 14.8C305.188 14.8 305.011 14.85 304.851 14.95C304.698 15.0433 304.578 15.1833 304.491 15.37C304.404 15.55 304.361 15.77 304.361 16.03V19H303.011ZM312.557 19V13.78H313.737L313.837 14.45C313.997 14.21 314.21 14.02 314.477 13.88C314.743 13.7333 315.043 13.66 315.377 13.66C315.623 13.66 315.843 13.6933 316.037 13.76C316.237 13.8267 316.41 13.9233 316.557 14.05C316.703 14.17 316.823 14.3233 316.917 14.51C317.11 14.2433 317.353 14.0367 317.647 13.89C317.94 13.7367 318.257 13.66 318.597 13.66C319.037 13.66 319.397 13.7467 319.677 13.92C319.963 14.0867 320.177 14.33 320.317 14.65C320.457 14.9633 320.527 15.3467 320.527 15.8V19H319.187V15.93C319.187 15.5633 319.107 15.2833 318.947 15.09C318.793 14.8967 318.563 14.8 318.257 14.8C318.057 14.8 317.877 14.85 317.717 14.95C317.563 15.0433 317.44 15.1833 317.347 15.37C317.26 15.55 317.217 15.77 317.217 16.03V19H315.867V15.93C315.867 15.5633 315.787 15.2833 315.627 15.09C315.473 14.8967 315.24 14.8 314.927 14.8C314.733 14.8 314.557 14.85 314.397 14.95C314.243 15.0433 314.123 15.1833 314.037 15.37C313.95 15.55 313.907 15.77 313.907 16.03V19H312.557ZM322.597 21.2L323.767 18.44H323.467L321.467 13.78H322.937L324.357 17.18L325.637 13.78H327.077L324.017 21.2H322.597ZM328.201 19V13.78H329.381L329.481 14.45C329.641 14.21 329.854 14.02 330.121 13.88C330.388 13.7333 330.688 13.66 331.021 13.66C331.268 13.66 331.488 13.6933 331.681 13.76C331.881 13.8267 332.054 13.9233 332.201 14.05C332.348 14.17 332.468 14.3233 332.561 14.51C332.754 14.2433 332.998 14.0367 333.291 13.89C333.584 13.7367 333.901 13.66 334.241 13.66C334.681 13.66 335.041 13.7467 335.321 13.92C335.608 14.0867 335.821 14.33 335.961 14.65C336.101 14.9633 336.171 15.3467 336.171 15.8V19H334.831V15.93C334.831 15.5633 334.751 15.2833 334.591 15.09C334.438 14.8967 334.208 14.8 333.901 14.8C333.701 14.8 333.521 14.85 333.361 14.95C333.208 15.0433 333.084 15.1833 332.991 15.37C332.904 15.55 332.861 15.77 332.861 16.03V19H331.511V15.93C331.511 15.5633 331.431 15.2833 331.271 15.09C331.118 14.8967 330.884 14.8 330.571 14.8C330.378 14.8 330.201 14.85 330.041 14.95C329.888 15.0433 329.768 15.1833 329.681 15.37C329.594 15.55 329.551 15.77 329.551 16.03V19H328.201ZM338.241 21.2L339.411 18.44H339.111L337.111 13.78H338.581L340.001 17.18L341.281 13.78H342.721L339.661 21.2H338.241ZM343.845 19V11.8H345.195V19H343.845ZM349.14 19.12C348.64 19.12 348.196 19.01 347.81 18.79C347.43 18.5633 347.133 18.2467 346.92 17.84C346.706 17.4333 346.6 16.9667 346.6 16.44C346.6 15.9 346.703 15.42 346.91 15C347.123 14.58 347.42 14.2533 347.8 14.02C348.186 13.78 348.636 13.66 349.15 13.66C349.663 13.66 350.103 13.7733 350.47 14C350.836 14.2267 351.116 14.5367 351.31 14.93C351.51 15.3167 351.61 15.7567 351.61 16.25C351.61 16.3167 351.61 16.39 351.61 16.47C351.61 16.55 351.603 16.6333 351.59 16.72H347.56V15.9H350.26C350.246 15.54 350.136 15.26 349.93 15.06C349.723 14.86 349.463 14.76 349.15 14.76C348.923 14.76 348.716 14.8167 348.53 14.93C348.343 15.0433 348.196 15.2133 348.09 15.44C347.983 15.66 347.93 15.9433 347.93 16.29V16.58C347.93 16.8733 347.976 17.1267 348.07 17.34C348.17 17.5533 348.31 17.72 348.49 17.84C348.67 17.96 348.883 18.02 349.13 18.02C349.396 18.02 349.603 17.9733 349.75 17.88C349.896 17.7867 350.013 17.66 350.1 17.5H351.47C351.376 17.8 351.22 18.0733 351 18.32C350.786 18.5667 350.523 18.7633 350.21 18.91C349.896 19.05 349.54 19.12 349.14 19.12ZM355.016 19.12C354.502 19.12 354.079 19.0467 353.746 18.9C353.412 18.7467 353.159 18.54 352.986 18.28C352.812 18.0133 352.716 17.7167 352.696 17.39H354.036C354.056 17.5167 354.102 17.6333 354.176 17.74C354.249 17.8467 354.352 17.9333 354.486 18C354.626 18.06 354.796 18.09 354.996 18.09C355.169 18.09 355.316 18.0667 355.436 18.02C355.562 17.9667 355.656 17.8967 355.716 17.81C355.782 17.7167 355.816 17.61 355.816 17.49C355.816 17.3367 355.772 17.2167 355.686 17.13C355.606 17.0433 355.489 16.9767 355.336 16.93C355.182 16.8767 354.992 16.8333 354.766 16.8C354.472 16.7533 354.202 16.6933 353.956 16.62C353.716 16.5467 353.509 16.4533 353.336 16.34C353.169 16.22 353.039 16.07 352.946 15.89C352.852 15.71 352.806 15.4933 352.806 15.24C352.806 14.94 352.889 14.67 353.056 14.43C353.222 14.19 353.462 14.0033 353.776 13.87C354.089 13.73 354.466 13.66 354.906 13.66C355.539 13.66 356.029 13.7967 356.376 14.07C356.729 14.3433 356.939 14.7167 357.006 15.19H355.736C355.696 15.0367 355.602 14.9167 355.456 14.83C355.316 14.7433 355.126 14.7 354.886 14.7C354.639 14.7 354.449 14.7467 354.316 14.84C354.182 14.9267 354.116 15.0467 354.116 15.2C354.116 15.3 354.146 15.3933 354.206 15.48C354.272 15.56 354.379 15.63 354.526 15.69C354.679 15.7433 354.886 15.7933 355.146 15.84C355.606 15.9067 355.982 15.9933 356.276 16.1C356.576 16.2067 356.799 16.3633 356.946 16.57C357.099 16.7767 357.172 17.06 357.166 17.42C357.166 17.7733 357.076 18.0767 356.896 18.33C356.722 18.5833 356.472 18.78 356.146 18.92C355.826 19.0533 355.449 19.12 355.016 19.12ZM359.206 19.05C358.96 19.05 358.76 18.9767 358.606 18.83C358.453 18.6767 358.376 18.49 358.376 18.27C358.376 18.05 358.453 17.8667 358.606 17.72C358.76 17.5667 358.96 17.49 359.206 17.49C359.453 17.49 359.653 17.5667 359.806 17.72C359.96 17.8667 360.036 18.05 360.036 18.27C360.036 18.49 359.96 18.6767 359.806 18.83C359.653 18.9767 359.453 19.05 359.206 19.05ZM363.842 19.12C363.336 19.12 362.886 19.0067 362.492 18.78C362.106 18.5467 361.802 18.2267 361.582 17.82C361.362 17.4133 361.252 16.9533 361.252 16.44C361.252 15.8933 361.362 15.4133 361.582 15C361.802 14.58 362.106 14.2533 362.492 14.02C362.886 13.78 363.336 13.66 363.842 13.66C364.496 13.66 365.042 13.8333 365.482 14.18C365.922 14.5267 366.202 15.0067 366.322 15.62H364.892C364.832 15.3667 364.706 15.17 364.512 15.03C364.326 14.89 364.099 14.82 363.832 14.82C363.579 14.82 363.362 14.8833 363.182 15.01C363.002 15.1367 362.862 15.3167 362.762 15.55C362.669 15.7833 362.622 16.0633 362.622 16.39C362.622 16.6367 362.649 16.86 362.702 17.06C362.762 17.2533 362.842 17.4167 362.942 17.55C363.049 17.6833 363.176 17.7867 363.322 17.86C363.476 17.9333 363.646 17.97 363.832 17.97C364.012 17.97 364.172 17.94 364.312 17.88C364.459 17.8133 364.582 17.72 364.682 17.6C364.789 17.48 364.859 17.3367 364.892 17.17H366.322C366.202 17.7633 365.919 18.2367 365.472 18.59C365.032 18.9433 364.489 19.12 363.842 19.12ZM370.115 19.12C369.622 19.12 369.182 19.0067 368.795 18.78C368.415 18.5467 368.115 18.2233 367.895 17.81C367.682 17.3967 367.575 16.9233 367.575 16.39C367.575 15.85 367.682 15.3767 367.895 14.97C368.115 14.5633 368.419 14.2433 368.805 14.01C369.192 13.7767 369.632 13.66 370.125 13.66C370.625 13.66 371.065 13.7767 371.445 14.01C371.832 14.2433 372.132 14.5633 372.345 14.97C372.565 15.3767 372.675 15.85 372.675 16.39C372.675 16.9233 372.565 17.3967 372.345 17.81C372.132 18.2233 371.832 18.5467 371.445 18.78C371.065 19.0067 370.622 19.12 370.115 19.12ZM370.115 17.95C370.349 17.95 370.552 17.8933 370.725 17.78C370.905 17.66 371.045 17.4867 371.145 17.26C371.245 17.0267 371.295 16.7367 371.295 16.39C371.295 16.0433 371.245 15.7567 371.145 15.53C371.052 15.2967 370.919 15.1233 370.745 15.01C370.572 14.89 370.365 14.83 370.125 14.83C369.899 14.83 369.695 14.89 369.515 15.01C369.342 15.1233 369.202 15.2967 369.095 15.53C368.995 15.7567 368.945 16.0433 368.945 16.39C368.945 16.7367 368.995 17.0267 369.095 17.26C369.195 17.4867 369.332 17.66 369.505 17.78C369.685 17.8933 369.889 17.95 370.115 17.95ZM374.088 19V13.78H375.268L375.368 14.45C375.528 14.21 375.741 14.02 376.008 13.88C376.275 13.7333 376.575 13.66 376.908 13.66C377.155 13.66 377.375 13.6933 377.568 13.76C377.768 13.8267 377.941 13.9233 378.088 14.05C378.235 14.17 378.355 14.3233 378.448 14.51C378.641 14.2433 378.885 14.0367 379.178 13.89C379.471 13.7367 379.788 13.66 380.128 13.66C380.568 13.66 380.928 13.7467 381.208 13.92C381.495 14.0867 381.708 14.33 381.848 14.65C381.988 14.9633 382.058 15.3467 382.058 15.8V19H380.718V15.93C380.718 15.5633 380.638 15.2833 380.478 15.09C380.325 14.8967 380.095 14.8 379.788 14.8C379.588 14.8 379.408 14.85 379.248 14.95C379.095 15.0433 378.971 15.1833 378.878 15.37C378.791 15.55 378.748 15.77 378.748 16.03V19H377.398V15.93C377.398 15.5633 377.318 15.2833 377.158 15.09C377.005 14.8967 376.771 14.8 376.458 14.8C376.265 14.8 376.088 14.85 375.928 14.95C375.775 15.0433 375.655 15.1833 375.568 15.37C375.481 15.55 375.438 15.77 375.438 16.03V19H374.088Z" fill="white"/>
</g>
</g>
</g>
<defs>
<clipPath id="clip0_430_1736">
<rect width="644" height="32" fill="white"/>
</clipPath>
</defs>
</svg>
