<svg width="70" height="70" viewBox="0 0 70 70" fill="none" xmlns="http://www.w3.org/2000/svg">
<g clip-path="url(#clip0_429_1642)">
<mask id="mask0_429_1642" style="mask-type:luminance" maskUnits="userSpaceOnUse" x="0" y="0" width="70" height="70">
<path d="M60 0H10C4.47715 0 0 4.47715 0 10V60C0 65.5229 4.47715 70 10 70H60C65.5229 70 70 65.5229 70 60V10C70 4.47715 65.5229 0 60 0Z" fill="white"/>
</mask>
<g mask="url(#mask0_429_1642)">
<path d="M60 0H10C4.47715 0 0 4.47715 0 10V60C0 65.5229 4.47715 70 10 70H60C65.5229 70 70 65.5229 70 60V10C70 4.47715 65.5229 0 60 0Z" fill="#181038"/>
<path d="M94.8609 -15.5156C94.8609 -15.5156 68.4823 -2.95315 73.1642 28.124C78.4171 62.9698 47.9561 77.9251 27.1444 69.3108C6.33268 60.6667 7.78864 28.6923 -31.7792 27.7052C-72.2035 26.7182 -80.7109 -13.5415 -80.7109 -13.5415" stroke="white" stroke-opacity="0.2" stroke-width="2" stroke-miterlimit="10"/>
<path d="M64.371 -24.8789C64.371 -24.8789 52.9517 1.68174 57.0341 28.0928C61.145 54.5038 42.6743 57.6145 35.3374 54.5038C20.0927 48.103 17.1522 13.8254 -7.45638 11.612C-25.9557 9.93705 -50.8498 23.1874 -64.0391 -6.8727" stroke="white" stroke-opacity="0.2" stroke-width="2" stroke-miterlimit="10"/>
<path d="M52.0707 -13.033C52.0707 -13.033 56.1817 14.0959 37.9964 9.25035C17.1562 3.68699 17.4702 -9.35401 -8.90832 2.96914C-18.3007 7.366 -56.0986 8.65215 -48.4762 -15.5156" stroke="white" stroke-opacity="0.2" stroke-width="2" stroke-miterlimit="10"/>
<path d="M38.8766 45.1414C43.2441 45.1414 46.7845 39.6777 46.7845 32.9379C46.7845 26.1981 43.2441 20.7344 38.8766 20.7344C34.5092 20.7344 30.9688 26.1981 30.9688 32.9379C30.9688 39.6777 34.5092 45.1414 38.8766 45.1414Z" stroke="white" stroke-opacity="0.2" stroke-width="2" stroke-miterlimit="10"/>
</g>
<g clip-path="url(#clip1_429_1642)">
<mask id="mask1_429_1642" style="mask-type:luminance" maskUnits="userSpaceOnUse" x="10" y="21" width="50" height="27">
<path d="M10 34.5288C10 41.6925 21.1931 47.5 34.9998 47.5C48.8066 47.5 59.9997 41.6925 59.9997 34.5288C59.9997 27.3651 48.8066 21.5576 34.9998 21.5576C21.1931 21.5576 10 27.3652 10 34.5288Z" fill="white"/>
</mask>
<g mask="url(#mask1_429_1642)">
<path d="M10 34.5288C10 41.6925 21.1931 47.5 34.9998 47.5C48.8066 47.5 59.9997 41.6925 59.9997 34.5288C59.9997 27.3651 48.8066 21.5576 34.9998 21.5576C21.1931 21.5576 10 27.3652 10 34.5288Z" fill="url(#paint0_radial_429_1642)"/>
</g>
<mask id="mask2_429_1642" style="mask-type:luminance" maskUnits="userSpaceOnUse" x="8" y="20" width="54" height="29">
<path d="M8.96094 20.0803H61.0439V48.9766H8.96094V20.0803Z" fill="white"/>
</mask>
<g mask="url(#mask2_429_1642)">
<path d="M34.9998 46.5352C48.2674 46.5352 59.0231 41.159 59.0231 34.5272C59.0231 27.8953 48.2674 22.5192 34.9998 22.5192C21.7322 22.5192 10.9766 27.8953 10.9766 34.5272C10.9766 41.159 21.7322 46.5352 34.9998 46.5352Z" fill="#777BB3"/>
</g>
<mask id="mask3_429_1642" style="mask-type:luminance" maskUnits="userSpaceOnUse" x="8" y="20" width="54" height="29">
<path d="M8.96094 20.0803H61.0439V48.9766H8.96094V20.0803Z" fill="white"/>
</mask>
<g mask="url(#mask3_429_1642)">
<path d="M23.5907 36.02C24.6817 36.02 25.4961 35.8215 26.0113 35.4305C26.5211 35.0434 26.8732 34.3725 27.0578 33.4369C27.2298 32.5623 27.1643 31.9517 26.863 31.6221C26.5549 31.2855 25.8889 31.1148 24.8834 31.1148H23.1401L22.1735 36.0201H23.5906L23.5907 36.02ZM17.8884 42.0623C17.8074 42.0623 17.7306 42.0266 17.6791 41.9649C17.6537 41.9345 17.6354 41.8989 17.6255 41.8606C17.6157 41.8224 17.6145 41.7825 17.6222 41.7437L20.1836 28.7449C20.1957 28.6839 20.2288 28.629 20.2774 28.5895C20.326 28.55 20.387 28.5284 20.4499 28.5284H25.9705C27.7056 28.5284 28.997 28.9922 29.8087 29.9097C30.6247 30.831 30.8767 32.119 30.5576 33.7375C30.4278 34.397 30.2045 35.0093 29.8939 35.5578C29.5829 36.1068 29.172 36.6147 28.6723 37.0677C28.0741 37.62 27.397 38.0204 26.6617 38.256C25.9381 38.4886 25.0088 38.6065 23.8995 38.6065H21.6641L21.0257 41.846C21.0137 41.9069 20.9806 41.9618 20.932 42.0014C20.8835 42.0409 20.8225 42.0625 20.7595 42.0625H17.8884V42.0623Z" fill="black"/>
<path d="M23.3614 31.3805H24.8812C26.0947 31.3805 26.5163 31.6431 26.6596 31.7996C26.8972 32.0595 26.942 32.6075 26.7893 33.3842C26.6177 34.2538 26.2996 34.8703 25.8437 35.2165C25.3769 35.571 24.6181 35.7506 23.5886 35.7506H22.5002L23.3614 31.3805ZM25.9683 28.259H20.4477C20.3218 28.259 20.1998 28.3022 20.1026 28.3812C20.0055 28.4602 19.9392 28.57 19.9152 28.692L17.3537 41.691C17.3384 41.7684 17.3408 41.8483 17.3605 41.9248C17.3802 42.0013 17.4168 42.0725 17.4676 42.1334C17.5185 42.1943 17.5825 42.2433 17.6548 42.277C17.7272 42.3106 17.8062 42.3281 17.8862 42.3281H20.7571C20.883 42.3281 21.005 42.2849 21.1022 42.2059C21.1994 42.1269 21.2656 42.017 21.2897 41.8951L21.8854 38.8722H23.8973C25.035 38.8722 25.9927 38.7498 26.7437 38.5086C27.5159 38.2611 28.2267 37.8414 28.8555 37.2614C29.3756 36.7894 29.8049 36.2596 30.1286 35.6866C30.4523 35.1136 30.6865 34.4742 30.822 33.7868C31.1579 32.083 30.885 30.7186 30.0109 29.7319C29.1453 28.7546 27.7852 28.259 25.9685 28.259M21.8422 36.2858H23.5886C24.746 36.2858 25.6082 36.0708 26.1746 35.6406C26.741 35.2104 27.1233 34.4923 27.3219 33.4861C27.5118 32.5201 27.4253 31.8383 27.0624 31.4411C26.6994 31.0439 25.9719 30.8453 24.8814 30.8453H22.9144L21.8423 36.2857M25.9686 28.7941C27.6293 28.7941 28.8409 29.2239 29.6024 30.0837C30.364 30.9435 30.5932 32.1437 30.2894 33.6846C30.1643 34.3193 29.9528 34.8997 29.6551 35.4255C29.3573 35.9513 28.9677 36.4327 28.4866 36.8689C27.9134 37.398 27.2765 37.775 26.5757 37.9998C25.875 38.2249 24.9825 38.3371 23.8974 38.3371H21.4383L20.7575 41.793H17.8866L20.4477 28.7941H25.9684" fill="white"/>
<path d="M37.1375 38.6054C37.0565 38.6054 36.9797 38.5697 36.9283 38.508C36.8768 38.4463 36.8558 38.3653 36.8713 38.2868L38.0043 32.5352C38.1121 31.9882 38.0855 31.5956 37.9295 31.4297C37.834 31.3283 37.5472 31.1583 36.6991 31.1583H34.6464L33.2218 38.3887C33.2098 38.4497 33.1766 38.5047 33.1281 38.5442C33.0795 38.5837 33.0185 38.6053 32.9555 38.6053H30.1072C30.0672 38.6053 30.0277 38.5966 29.9915 38.5797C29.9553 38.5629 29.9234 38.5384 29.8979 38.5079C29.8725 38.4775 29.8541 38.4419 29.8443 38.4036C29.8344 38.3654 29.8333 38.3255 29.8409 38.2867L32.4024 25.2879C32.4144 25.2269 32.4476 25.172 32.4961 25.1325C32.5447 25.093 32.6057 25.0714 32.6687 25.0714H35.517C35.557 25.0714 35.5965 25.0801 35.6327 25.097C35.6689 25.1138 35.7008 25.1383 35.7263 25.1688C35.7517 25.1992 35.77 25.2348 35.7799 25.2731C35.7897 25.3113 35.7909 25.3513 35.7833 25.39L35.1651 28.5274H37.3734C39.0557 28.5274 40.1964 28.8199 40.861 29.4217C41.5392 30.0357 41.7496 31.0173 41.4892 32.3399L40.2974 38.3889C40.2854 38.4499 40.2522 38.5048 40.2037 38.5444C40.1551 38.5839 40.0941 38.6055 40.0311 38.6055H37.1376L37.1375 38.6054Z" fill="black"/>
<path d="M35.5148 24.8021H32.6665C32.5406 24.8021 32.4186 24.8453 32.3214 24.9243C32.2242 25.0033 32.158 25.1132 32.1339 25.2351L29.5725 38.2339C29.5572 38.3114 29.5595 38.3913 29.5792 38.4678C29.5989 38.5442 29.6355 38.6155 29.6864 38.6764C29.7373 38.7373 29.8013 38.7863 29.8736 38.82C29.946 38.8536 30.025 38.8711 30.105 38.8711H32.9533C33.0793 38.8711 33.2013 38.8279 33.2984 38.7489C33.3956 38.6699 33.4619 38.56 33.4859 38.4381L34.8678 31.4241H36.6971C37.5437 31.4241 37.7214 31.6024 37.7285 31.6101C37.7799 31.6645 37.8474 31.9169 37.7359 32.4823L36.6029 38.2339C36.5877 38.3114 36.59 38.3913 36.6097 38.4678C36.6294 38.5442 36.666 38.6155 36.7169 38.6764C36.7678 38.7373 36.8317 38.7863 36.9041 38.82C36.9765 38.8536 37.0555 38.8711 37.1355 38.8711H40.029C40.1549 38.8711 40.277 38.8279 40.3741 38.7489C40.4713 38.6699 40.5376 38.56 40.5616 38.4381L41.7534 32.3891C42.033 30.9692 41.7938 29.904 41.0426 29.223C40.3258 28.5737 39.125 28.258 37.3715 28.258H35.4922L36.0477 25.4392C36.0629 25.3618 36.0606 25.2819 36.0409 25.2054C36.0212 25.1289 35.9846 25.0577 35.9337 24.9967C35.8828 24.9358 35.8189 24.8868 35.7465 24.8531C35.6741 24.8195 35.5951 24.802 35.5151 24.802M35.5151 25.3371L34.8342 28.7931H37.3716C38.9682 28.7931 40.0694 29.068 40.6756 29.617C41.2818 30.166 41.4632 31.0564 41.2211 32.287L40.0293 38.336H37.1358L38.2688 32.5846C38.3977 31.9303 38.3503 31.484 38.1265 31.2461C37.9026 31.0081 37.426 30.889 36.6973 30.889H34.4207L32.9535 38.336H30.1052L32.6667 25.3371H35.515" fill="white"/>
<path d="M45.9969 36.02C47.0878 36.02 47.9022 35.8215 48.4175 35.4305C48.9273 35.0434 49.2794 34.3727 49.464 33.4369C49.6361 32.5623 49.5705 31.9517 49.2692 31.6221C48.9611 31.2855 48.295 31.1148 47.2895 31.1148H45.5462L44.5796 36.0201H45.9968L45.9969 36.02ZM40.2947 42.0623C40.2138 42.0623 40.1369 42.0266 40.0855 41.9649C40.06 41.9345 40.0417 41.8989 40.0318 41.8606C40.0219 41.8224 40.0208 41.7825 40.0284 41.7437L42.5899 28.7449C42.6019 28.6839 42.6351 28.629 42.6837 28.5895C42.7323 28.55 42.7933 28.5284 42.8562 28.5284H48.3768C50.112 28.5284 51.4032 28.9922 52.215 29.9097C53.0311 30.831 53.2829 32.1188 52.964 33.7375C52.8339 34.397 52.6107 35.0093 52.3001 35.5578C51.989 36.1068 51.5782 36.6147 51.0785 37.0677C50.4803 37.62 49.8032 38.0204 49.0679 38.256C48.3442 38.4886 47.415 38.6065 46.3057 38.6065H44.07L43.4319 41.846C43.4199 41.9069 43.3867 41.9619 43.3381 42.0014C43.2895 42.0409 43.2285 42.0625 43.1655 42.0625H40.2946L40.2947 42.0623Z" fill="black"/>
<path d="M45.7676 31.3805H47.2874C48.5009 31.3805 48.9225 31.6431 49.0657 31.7996C49.3035 32.0595 49.3483 32.6075 49.1955 33.3841C49.0239 34.2537 48.7057 34.8703 48.2498 35.2165C47.7831 35.571 47.0243 35.7506 45.9947 35.7506H44.9067L45.7676 31.3805ZM48.3744 28.259H42.8538C42.7279 28.259 42.6059 28.3022 42.5088 28.3812C42.4116 28.4602 42.3454 28.57 42.3213 28.692L39.76 41.691C39.7447 41.7684 39.747 41.8483 39.7667 41.9248C39.7864 42.0013 39.823 42.0725 39.8739 42.1334C39.9248 42.1943 39.9887 42.2433 40.0611 42.277C40.1334 42.3106 40.2124 42.3281 40.2924 42.3281H43.1633C43.2893 42.3281 43.4113 42.2849 43.5084 42.2059C43.6056 42.1269 43.6719 42.017 43.6959 41.8951L44.2915 38.8722H46.3034C47.4411 38.8722 48.3989 38.7498 49.1499 38.5086C49.9221 38.2611 50.6328 37.8414 51.2618 37.2612C51.7819 36.7894 52.2101 36.2596 52.5348 35.6866C52.8594 35.1136 53.0927 34.4742 53.2281 33.7868C53.564 32.0829 53.2911 30.7185 52.417 29.7318C51.5515 28.7546 50.1915 28.259 48.3746 28.259M44.2485 36.2858H45.9947C47.1521 36.2858 48.0144 36.0708 48.5808 35.6406C49.1472 35.2104 49.5295 34.4923 49.7281 33.4861C49.9181 32.5201 49.8316 31.8383 49.4685 31.4411C49.1055 31.0439 48.3781 30.8453 47.2876 30.8453H45.3205L44.2486 36.2857M48.3747 28.7941C50.0355 28.7941 51.2471 29.2239 52.0086 30.0837C52.7701 30.9435 52.9993 32.1437 52.6955 33.6846C52.5705 34.3193 52.359 34.8997 52.0612 35.4255C51.7635 35.9513 51.3738 36.4327 50.8928 36.8689C50.3195 37.398 49.6827 37.775 48.9819 37.9998C48.2811 38.2249 47.3887 38.3371 46.3036 38.3371H43.8445L43.1636 41.793H40.2927L42.8542 28.7942H48.3748" fill="white"/>
</g>
</g>
</g>
<defs>
<radialGradient id="paint0_radial_429_1642" cx="0" cy="0" r="1" gradientUnits="userSpaceOnUse" gradientTransform="translate(25.01 26.1179) scale(32.8284 32.3797)">
<stop stop-color="#AEB2D5"/>
<stop offset="0.3" stop-color="#AEB2D5"/>
<stop offset="0.75" stop-color="#484C89"/>
<stop offset="1" stop-color="#484C89"/>
</radialGradient>
<clipPath id="clip0_429_1642">
<rect width="70" height="70" fill="white"/>
</clipPath>
<clipPath id="clip1_429_1642">
<rect width="50" height="50" fill="white" transform="translate(10 10)"/>
</clipPath>
</defs>
</svg>
