<svg width="70" height="70" viewBox="0 0 70 70" fill="none" xmlns="http://www.w3.org/2000/svg">
<g clip-path="url(#clip0_429_1615)">
<mask id="mask0_429_1615" style="mask-type:luminance" maskUnits="userSpaceOnUse" x="0" y="0" width="70" height="70">
<path d="M60 0H10C4.47715 0 0 4.47715 0 10V60C0 65.5229 4.47715 70 10 70H60C65.5229 70 70 65.5229 70 60V10C70 4.47715 65.5229 0 60 0Z" fill="white"/>
</mask>
<g mask="url(#mask0_429_1615)">
<path d="M60 0H10C4.47715 0 0 4.47715 0 10V60C0 65.5229 4.47715 70 10 70H60C65.5229 70 70 65.5229 70 60V10C70 4.47715 65.5229 0 60 0Z" fill="#0D1701"/>
<path d="M94.8609 -15.5156C94.8609 -15.5156 68.4823 -2.95315 73.1642 28.124C78.4171 62.9698 47.9561 77.9251 27.1444 69.3108C6.33268 60.6667 7.78864 28.6923 -31.7792 27.7052C-72.2035 26.7182 -80.7109 -13.5415 -80.7109 -13.5415" stroke="white" stroke-opacity="0.2" stroke-width="2" stroke-miterlimit="10"/>
<path d="M64.371 -24.8789C64.371 -24.8789 52.9517 1.68174 57.0341 28.0928C61.145 54.5038 42.6743 57.6145 35.3374 54.5038C20.0927 48.103 17.1522 13.8254 -7.45638 11.612C-25.9557 9.93705 -50.8498 23.1874 -64.0391 -6.8727" stroke="white" stroke-opacity="0.2" stroke-width="2" stroke-miterlimit="10"/>
<path d="M52.0707 -13.033C52.0707 -13.033 56.1817 14.0959 37.9964 9.25035C17.1562 3.68699 17.4702 -9.35401 -8.90832 2.96914C-18.3007 7.366 -56.0986 8.65215 -48.4762 -15.5156" stroke="white" stroke-opacity="0.2" stroke-width="2" stroke-miterlimit="10"/>
<path d="M38.8766 45.1414C43.2441 45.1414 46.7845 39.6777 46.7845 32.9379C46.7845 26.1981 43.2441 20.7344 38.8766 20.7344C34.5092 20.7344 30.9688 26.1981 30.9688 32.9379C30.9688 39.6777 34.5092 45.1414 38.8766 45.1414Z" stroke="white" stroke-opacity="0.2" stroke-width="2" stroke-miterlimit="10"/>
<g clip-path="url(#clip1_429_1615)">
<path d="M51.3189 19.8179C51.2845 19.5677 51.0656 19.4295 50.8845 19.4143C50.7039 19.3991 46.8806 19.1158 46.8806 19.1158C46.8806 19.1158 44.2252 16.4796 43.9339 16.1879C43.6422 15.8962 43.0728 15.9849 42.8518 16.0501C42.819 16.0597 42.2716 16.2287 41.3657 16.5088C40.4786 13.9566 38.9134 11.6109 36.1593 11.6109C36.0834 11.6109 36.0051 11.6141 35.9268 11.6185C35.1436 10.5828 34.1733 10.1328 33.3354 10.1328C26.9202 10.1328 23.8553 18.1523 22.8943 22.2279C20.4016 23.0003 18.6306 23.5493 18.4044 23.6205C17.013 24.0568 16.969 24.1008 16.7864 25.4119C16.6486 26.4045 13.0078 54.5601 13.0078 54.5601L41.3773 59.8756L56.749 56.5501C56.749 56.5501 51.3529 20.068 51.3189 19.8179ZM39.7977 16.9939C39.0852 17.2145 38.2752 17.465 37.3973 17.7368C37.3981 17.5677 37.3989 17.4011 37.3989 17.2193C37.3989 15.6329 37.1787 14.3558 36.8255 13.3432C38.2444 13.5214 39.1895 15.1358 39.7977 16.9939ZM35.0652 13.6577C35.4596 14.6463 35.7162 16.0648 35.7162 17.9793C35.7162 18.0772 35.7154 18.1667 35.7146 18.2574C34.1534 18.741 32.4571 19.266 30.7568 19.7927C31.7114 16.1084 33.5008 14.329 35.0652 13.6577ZM33.1592 11.8535C33.4361 11.8535 33.715 11.9474 33.9819 12.1312C31.926 13.0986 29.7222 15.5354 28.7915 20.4013C27.4313 20.8225 26.1018 21.2341 24.8727 21.6149C25.9628 17.9034 28.5514 11.8535 33.1592 11.8535Z" fill="#95BF46"/>
<path d="M50.8806 19.4146C50.7 19.3994 46.8767 19.1161 46.8767 19.1161C46.8767 19.1161 44.2213 16.4799 43.93 16.1882C43.8209 16.0795 43.6739 16.024 43.52 16L41.375 59.8755L56.7451 56.5504C56.7451 56.5504 51.349 20.0683 51.315 19.8182C51.2806 19.568 51.0617 19.4298 50.8806 19.4146Z" fill="#5E8E3E"/>
<path d="M36.1606 27.9069L34.2653 33.5448C34.2653 33.5448 32.6046 32.6585 30.569 32.6585C27.5848 32.6585 27.4346 34.5315 27.4346 35.0034C27.4346 37.5784 34.147 38.565 34.147 44.5965C34.147 49.3418 31.1373 52.3975 27.0789 52.3975C22.209 52.3975 19.7188 49.3665 19.7188 49.3665L21.0226 45.0585C21.0226 45.0585 23.5825 47.2563 25.7427 47.2563C27.1541 47.2563 27.7283 46.145 27.7283 45.333C27.7283 41.974 22.2214 41.8241 22.2214 36.3049C22.2214 31.6595 25.5557 27.1641 32.2861 27.1641C34.8795 27.1641 36.1606 27.9069 36.1606 27.9069Z" fill="white"/>
</g>
</g>
</g>
<defs>
<clipPath id="clip0_429_1615">
<rect width="70" height="70" fill="white"/>
</clipPath>
<clipPath id="clip1_429_1615">
<rect width="43.8356" height="50" fill="white" transform="translate(13 10)"/>
</clipPath>
</defs>
</svg>
