<svg width="70" height="70" viewBox="0 0 70 70" fill="none" xmlns="http://www.w3.org/2000/svg">
<g clip-path="url(#clip0_429_1412)">
<mask id="mask0_429_1412" style="mask-type:luminance" maskUnits="userSpaceOnUse" x="0" y="0" width="70" height="70">
<path d="M60 0H10C4.47715 0 0 4.47715 0 10V60C0 65.5229 4.47715 70 10 70H60C65.5229 70 70 65.5229 70 60V10C70 4.47715 65.5229 0 60 0Z" fill="white"/>
</mask>
<g mask="url(#mask0_429_1412)">
<path d="M60 0H10C4.47715 0 0 4.47715 0 10V60C0 65.5229 4.47715 70 10 70H60C65.5229 70 70 65.5229 70 60V10C70 4.47715 65.5229 0 60 0Z" fill="#002242"/>
<path d="M94.8609 -15.5156C94.8609 -15.5156 68.4823 -2.95315 73.1642 28.124C78.4171 62.9698 47.9561 77.9251 27.1444 69.3108C6.33268 60.6667 7.78864 28.6923 -31.7792 27.7052C-72.2035 26.7182 -80.7109 -13.5415 -80.7109 -13.5415" stroke="white" stroke-opacity="0.2" stroke-width="2" stroke-miterlimit="10"/>
<path d="M64.371 -24.8789C64.371 -24.8789 52.9517 1.68174 57.0341 28.0928C61.145 54.5038 42.6743 57.6145 35.3374 54.5038C20.0927 48.103 17.1522 13.8254 -7.45638 11.612C-25.9557 9.93705 -50.8498 23.1874 -64.0391 -6.8727" stroke="white" stroke-opacity="0.2" stroke-width="2" stroke-miterlimit="10"/>
<path d="M52.0707 -13.033C52.0707 -13.033 56.1817 14.0959 37.9964 9.25035C17.1562 3.68699 17.4702 -9.35401 -8.90832 2.96914C-18.3007 7.366 -56.0986 8.65215 -48.4762 -15.5156" stroke="white" stroke-opacity="0.2" stroke-width="2" stroke-miterlimit="10"/>
<path d="M38.8766 45.1414C43.2441 45.1414 46.7845 39.6777 46.7845 32.9379C46.7845 26.1981 43.2441 20.7344 38.8766 20.7344C34.5092 20.7344 30.9688 26.1981 30.9688 32.9379C30.9688 39.6777 34.5092 45.1414 38.8766 45.1414Z" stroke="white" stroke-opacity="0.2" stroke-width="2" stroke-miterlimit="10"/>
<g clip-path="url(#clip1_429_1412)">
<path d="M24.9951 25.4309H22.234L29.7617 46.7099L33.9759 34.6671L30.7085 25.4309H27.7953V23.4033H40.6962V25.4309H37.6751L45.2027 46.7099L47.9086 38.9773C51.4581 29.0703 44.9993 25.9842 44.9993 23.7732C44.9993 21.5623 46.7917 19.77 49.0026 19.77C49.1222 19.77 49.2383 19.7765 49.3521 19.7871C45.606 16.2507 40.5547 14.082 34.9964 14.082C27.7336 14.082 21.3362 17.7841 17.5859 23.4033H24.9949V25.4309H24.9951Z" fill="#01ACE4"/>
<path d="M14.0781 35.0016C14.0781 43.0101 18.5794 49.9663 25.1892 53.4814L15.7493 26.7969C14.674 29.3161 14.0781 32.0892 14.0781 35.0016Z" fill="#01ACE4"/>
<path d="M53.2087 24.6914C53.5079 26.4532 53.4173 28.4333 52.9581 30.4211H53.0413L52.725 31.3249C52.5376 31.9775 52.3016 32.6451 52.0336 33.301L44.8359 53.4654C51.4319 49.9461 55.9217 42.9974 55.9217 34.999C55.9217 31.2511 54.935 27.7339 53.2087 24.6914Z" fill="#01ACE4"/>
<path d="M28.5469 54.9016C30.579 55.5599 32.7467 55.9169 34.9982 55.9169C37.1458 55.9169 39.2175 55.5928 41.1678 54.9916L35.049 37.6953L28.5469 54.9016Z" fill="#01ACE4"/>
<path d="M52.6776 17.3223C47.9557 12.6004 41.6776 10 34.9999 10C28.3221 10 22.0441 12.6004 17.3223 17.3223C12.6004 22.0441 10 28.3222 10 35C10 41.6777 12.6004 47.9557 17.3223 52.6776C22.0441 57.3994 28.3223 59.9999 35 59.9999C41.6777 59.9999 47.9557 57.3994 52.6777 52.6776C57.3996 47.9557 60 41.6776 60 35C59.9999 28.3222 57.3994 22.0441 52.6776 17.3223ZM34.9999 58.2363C22.1873 58.2363 11.7636 47.8126 11.7636 35C11.7636 22.1874 22.1873 11.7636 34.9999 11.7636C47.8124 11.7636 58.2362 22.1874 58.2362 35C58.2362 47.8126 47.8126 58.2363 34.9999 58.2363Z" fill="#01ACE4"/>
</g>
</g>
</g>
<defs>
<clipPath id="clip0_429_1412">
<rect width="70" height="70" fill="white"/>
</clipPath>
<clipPath id="clip1_429_1412">
<rect width="50" height="50" fill="white" transform="translate(10 10)"/>
</clipPath>
</defs>
</svg>
