<svg width="70" height="70" viewBox="0 0 70 70" fill="none" xmlns="http://www.w3.org/2000/svg">
<g clip-path="url(#clip0_429_1484)">
<mask id="mask0_429_1484" style="mask-type:luminance" maskUnits="userSpaceOnUse" x="0" y="0" width="70" height="70">
<path d="M60 0H10C4.47715 0 0 4.47715 0 10V60C0 65.5229 4.47715 70 10 70H60C65.5229 70 70 65.5229 70 60V10C70 4.47715 65.5229 0 60 0Z" fill="white"/>
</mask>
<g mask="url(#mask0_429_1484)">
<path d="M60 0H10C4.47715 0 0 4.47715 0 10V60C0 65.5229 4.47715 70 10 70H60C65.5229 70 70 65.5229 70 60V10C70 4.47715 65.5229 0 60 0Z" fill="#01417C"/>
<path d="M94.8609 -15.5156C94.8609 -15.5156 68.4823 -2.95315 73.1642 28.124C78.4171 62.9698 47.9561 77.9251 27.1444 69.3108C6.33268 60.6667 7.78864 28.6923 -31.7792 27.7052C-72.2035 26.7182 -80.7109 -13.5415 -80.7109 -13.5415" stroke="white" stroke-opacity="0.2" stroke-width="2" stroke-miterlimit="10"/>
<path d="M64.371 -24.8789C64.371 -24.8789 52.9517 1.68174 57.0341 28.0928C61.145 54.5038 42.6743 57.6145 35.3374 54.5038C20.0927 48.103 17.1522 13.8254 -7.45638 11.612C-25.9557 9.93705 -50.8498 23.1874 -64.0391 -6.8727" stroke="white" stroke-opacity="0.2" stroke-width="2" stroke-miterlimit="10"/>
<path d="M52.0707 -13.033C52.0707 -13.033 56.1817 14.0959 37.9964 9.25035C17.1562 3.68699 17.4702 -9.35401 -8.90832 2.96914C-18.3007 7.366 -56.0986 8.65215 -48.4762 -15.5156" stroke="white" stroke-opacity="0.2" stroke-width="2" stroke-miterlimit="10"/>
<path d="M38.8766 45.1414C43.2441 45.1414 46.7845 39.6777 46.7845 32.9379C46.7845 26.1981 43.2441 20.7344 38.8766 20.7344C34.5092 20.7344 30.9688 26.1981 30.9688 32.9379C30.9688 39.6777 34.5092 45.1414 38.8766 45.1414Z" stroke="white" stroke-opacity="0.2" stroke-width="2" stroke-miterlimit="10"/>
</g>
<g clip-path="url(#clip1_429_1484)">
<path d="M21.125 11.3752L11.375 21.1268C10.4922 22.0097 10 23.1974 10 24.4398V57.6559C10 58.9531 11.0469 60 12.3438 60H57.6562C58.9531 60 60 58.9531 60 57.6559V12.3441C60 11.047 58.9531 10 57.6562 10H24.4453C23.2031 10 22.0078 10.4923 21.1328 11.3752H21.125Z" fill="url(#paint0_radial_429_1484)"/>
<path d="M45.3776 42.9421H41.7578V28.375H51.4071V31.7671H45.3776V34.3666H51.0602V37.6743H45.3776V42.9427V42.9421Z" fill="white"/>
<path opacity="0.05" d="M40.7994 36.829H44.3872C43.8564 40.5367 40.7395 42.9887 36.9633 42.9887C32.8281 42.9887 29.4612 39.8889 29.4612 35.7147C29.4526 34.744 29.6408 33.7816 30.0143 32.886C30.3879 31.9905 30.939 31.1805 31.6343 30.5052C33.0613 29.1189 34.9769 28.3548 36.9633 28.3795C40.7046 28.3795 43.9085 30.8505 44.3641 34.4988H40.7799C39.7022 30.3662 32.9868 30.7703 32.9868 35.7147C32.9868 40.6598 39.7863 41.024 40.7994 36.8302V36.829Z" fill="#408DD9"/>
<path d="M40.0707 36.829C39.4552 38.915 37.2643 40.1553 35.1078 39.6358C32.9502 39.1147 31.5982 37.0228 32.0461 34.8964C32.4934 32.7695 34.58 31.3682 36.772 31.723C37.67 31.845 38.4981 32.2755 39.1151 32.9412C39.5416 33.3816 39.8616 33.9143 40.0506 34.4983H43.53C43.0744 30.8417 39.8616 28.3795 36.1292 28.3795C34.1426 28.3542 32.2265 29.1179 30.799 30.5041C30.1032 31.1796 29.5518 31.9899 29.1781 32.8859C28.8044 33.7819 28.6163 34.7447 28.6253 35.716C28.6253 39.8902 31.9726 42.9888 36.1304 42.9888C39.9037 42.9888 43.0116 40.5368 43.5519 36.829H40.0701H40.0707Z" fill="white"/>
<path opacity="0.05" d="M29.2552 40.8227H24.2176L23.3941 42.9395H19.5391L25.4386 28.3594H28.0098L34.144 42.9443H30.0739L29.2539 40.8227H29.2552ZM25.6495 37.2136L25.5233 37.5429H27.9689L27.8842 37.2956L26.7455 34.1691L25.6495 37.2136Z" fill="#408DD9"/>
<path d="M28.3015 40.8227H23.2723L22.4494 42.9395H18.5938L24.4939 28.3594H27.0651L33.1993 42.9443H29.1309L28.3015 40.8227ZM24.7042 37.2136L24.5786 37.5429H27.0242L26.9389 37.2956L25.8008 34.1691L24.7048 37.2136H24.7042Z" fill="white"/>
</g>
</g>
<defs>
<radialGradient id="paint0_radial_429_1484" cx="0" cy="0" r="1" gradientUnits="userSpaceOnUse" gradientTransform="translate(10 10) rotate(45) scale(70.7105)">
<stop stop-color="#0ECAD4"/>
<stop offset="1" stop-color="#006BD6"/>
</radialGradient>
<clipPath id="clip0_429_1484">
<rect width="70" height="70" fill="white"/>
</clipPath>
<clipPath id="clip1_429_1484">
<rect width="50" height="50" fill="white" transform="translate(10 10)"/>
</clipPath>
</defs>
</svg>
