<svg width="70" height="70" viewBox="0 0 70 70" fill="none" xmlns="http://www.w3.org/2000/svg">
<g clip-path="url(#clip0_429_1397)">
<mask id="mask0_429_1397" style="mask-type:luminance" maskUnits="userSpaceOnUse" x="0" y="0" width="70" height="70">
<path d="M60 0H10C4.47715 0 0 4.47715 0 10V60C0 65.5229 4.47715 70 10 70H60C65.5229 70 70 65.5229 70 60V10C70 4.47715 65.5229 0 60 0Z" fill="white"/>
</mask>
<g mask="url(#mask0_429_1397)">
<path d="M60 0H10C4.47715 0 0 4.47715 0 10V60C0 65.5229 4.47715 70 10 70H60C65.5229 70 70 65.5229 70 60V10C70 4.47715 65.5229 0 60 0Z" fill="#23123E"/>
<path d="M94.8608 -15.5156C94.8608 -15.5156 68.4822 -2.95315 73.1642 28.124C78.417 62.9698 47.956 77.9251 27.1444 69.3108C6.33265 60.6667 7.78861 28.6923 -31.7792 27.7052C-72.2036 26.7182 -80.7109 -13.5415 -80.7109 -13.5415" stroke="white" stroke-opacity="0.2" stroke-width="2" stroke-miterlimit="10"/>
<path d="M64.371 -24.8789C64.371 -24.8789 52.9517 1.68174 57.0341 28.0928C61.145 54.5038 42.6743 57.6145 35.3374 54.5038C20.0927 48.103 17.1522 13.8254 -7.45638 11.612C-25.9557 9.93705 -50.8498 23.1874 -64.0391 -6.8727" stroke="white" stroke-opacity="0.2" stroke-width="2" stroke-miterlimit="10"/>
<path d="M52.0708 -13.033C52.0708 -13.033 56.1817 14.0959 37.9965 9.25035C17.1562 3.68699 17.4703 -9.35401 -8.90828 2.96914C-18.3007 7.366 -56.0986 8.65215 -48.4762 -15.5156" stroke="white" stroke-opacity="0.2" stroke-width="2" stroke-miterlimit="10"/>
<g clip-path="url(#clip1_429_1397)">
<path d="M20.3852 15C17.5322 15 15.4212 17.497 15.5157 20.2051C15.6064 22.8068 15.4886 26.1763 14.6403 28.9242C13.7894 31.6801 12.3504 33.4258 10 33.65V36.1805C12.3504 36.4047 13.7894 38.1504 14.6403 40.9064C15.4886 43.6542 15.6064 47.0237 15.5157 49.6254C15.4212 52.3331 17.5322 54.8305 20.3856 54.8305H49.6186C52.4716 54.8305 54.5822 52.3335 54.4877 49.6254C54.397 47.0237 54.5148 43.6542 55.3631 40.9064C56.2144 38.1504 57.6496 36.4047 60 36.1805V33.65C57.6496 33.4258 56.2144 31.6801 55.3631 28.9242C54.5148 26.1767 54.397 22.8068 54.4877 20.2051C54.5822 17.4975 52.4716 15 49.6186 15H20.3847H20.3852ZM43.8983 39.5182C43.8983 43.247 41.1169 45.5085 36.5013 45.5085H28.6441C28.176 45.5085 27.7966 45.1291 27.7966 44.661V25.1695C27.7966 24.7015 28.176 24.322 28.6441 24.322H36.4564C40.3051 24.322 42.8309 26.4068 42.8309 29.6076C42.8309 31.8542 41.1318 33.8657 38.9669 34.2178V34.3352C41.914 34.6585 43.8983 36.6992 43.8983 39.5182ZM35.6445 27.0085H31.1644V33.3364H34.9377C37.8547 33.3364 39.4631 32.1619 39.4631 30.0623C39.4631 28.0949 38.0801 27.0085 35.6445 27.0085ZM31.1644 35.8475V42.8212H35.8093C38.8462 42.8212 40.4551 41.6025 40.4551 39.3123C40.4551 37.0216 38.8013 35.847 35.614 35.847H31.1644V35.8475Z" fill="#BF9EF2"/>
</g>
</g>
</g>
<defs>
<clipPath id="clip0_429_1397">
<rect width="70" height="70" fill="white"/>
</clipPath>
<clipPath id="clip1_429_1397">
<rect width="50" height="39.8438" fill="white" transform="translate(10 15)"/>
</clipPath>
</defs>
</svg>
