<svg width="70" height="70" viewBox="0 0 70 70" fill="none" xmlns="http://www.w3.org/2000/svg">
<g clip-path="url(#clip0_429_1562)">
<mask id="mask0_429_1562" style="mask-type:luminance" maskUnits="userSpaceOnUse" x="0" y="0" width="70" height="70">
<path d="M60 0H10C4.47715 0 0 4.47715 0 10V60C0 65.5229 4.47715 70 10 70H60C65.5229 70 70 65.5229 70 60V10C70 4.47715 65.5229 0 60 0Z" fill="white"/>
</mask>
<g mask="url(#mask0_429_1562)">
<path d="M60 0H10C4.47715 0 0 4.47715 0 10V60C0 65.5229 4.47715 70 10 70H60C65.5229 70 70 65.5229 70 60V10C70 4.47715 65.5229 0 60 0Z" fill="#002242"/>
<path d="M94.8609 -15.5156C94.8609 -15.5156 68.4823 -2.95315 73.1642 28.124C78.4171 62.9698 47.9561 77.9251 27.1444 69.3108C6.33268 60.6667 7.78864 28.6923 -31.7792 27.7052C-72.2035 26.7182 -80.7109 -13.5415 -80.7109 -13.5415" stroke="white" stroke-opacity="0.2" stroke-width="2" stroke-miterlimit="10"/>
<path d="M64.371 -24.8789C64.371 -24.8789 52.9517 1.68174 57.0341 28.0928C61.145 54.5038 42.6743 57.6145 35.3374 54.5038C20.0927 48.103 17.1522 13.8254 -7.45638 11.612C-25.9557 9.93705 -50.8498 23.1874 -64.0391 -6.8727" stroke="white" stroke-opacity="0.2" stroke-width="2" stroke-miterlimit="10"/>
<path d="M52.0707 -13.033C52.0707 -13.033 56.1817 14.0959 37.9964 9.25035C17.1562 3.68699 17.4702 -9.35401 -8.90832 2.96914C-18.3007 7.366 -56.0986 8.65215 -48.4762 -15.5156" stroke="white" stroke-opacity="0.2" stroke-width="2" stroke-miterlimit="10"/>
<path d="M38.8766 45.1414C43.2441 45.1414 46.7845 39.6777 46.7845 32.9379C46.7845 26.1981 43.2441 20.7344 38.8766 20.7344C34.5092 20.7344 30.9688 26.1981 30.9688 32.9379C30.9688 39.6777 34.5092 45.1414 38.8766 45.1414Z" stroke="white" stroke-opacity="0.2" stroke-width="2" stroke-miterlimit="10"/>
<path d="M42.4736 20.2483C39.088 16.8642 35.8576 13.6383 34.8963 10C33.9349 13.6383 30.7042 16.8642 27.319 20.2483C22.2414 25.3227 16.4844 31.0739 16.4844 39.6995C16.4844 44.5829 18.4243 49.2662 21.8773 52.7191C25.3303 56.1722 30.0136 58.1121 34.8968 58.1121C39.7801 58.1121 44.4634 56.1722 47.9165 52.7191C51.3694 49.2662 53.3093 44.5829 53.3093 39.6995C53.3093 31.0744 47.5528 25.3227 42.4736 20.2483ZM24.3102 43.9899C23.1813 43.9517 19.0147 36.77 26.7444 29.1232L31.8595 34.7106C31.9033 34.7539 31.9376 34.8061 31.9598 34.8637C31.9822 34.9212 31.9921 34.9828 31.9888 35.0444C31.9856 35.1061 31.9694 35.1664 31.9412 35.2212C31.913 35.2761 31.8735 35.3244 31.8253 35.363C30.6047 36.6148 25.4023 41.8317 24.7557 43.6357C24.6222 44.008 24.4273 43.994 24.3102 43.9899ZM34.8968 53.4553C34.0653 53.4553 33.2419 53.2915 32.4735 52.9732C31.7052 52.655 31.0071 52.1886 30.419 51.6005C29.8311 51.0125 29.3646 50.3143 29.0463 49.5461C28.7281 48.7778 28.5644 47.9543 28.5644 47.1227C28.5644 45.5195 29.2018 44.0906 30.1427 42.9399C31.2845 41.5437 34.896 37.6166 34.896 37.6166C34.896 37.6166 38.4521 41.6014 39.6409 42.9266C40.6762 44.0776 41.2429 45.5746 41.2294 47.1227C41.2294 48.8022 40.5622 50.413 39.3746 51.6005C38.1871 52.7881 36.5764 53.4553 34.8968 53.4553ZM47.0173 43.1862C46.8808 43.4846 46.5712 43.9829 46.1533 43.9981C45.4084 44.0253 45.3289 43.6437 44.7784 42.8288C43.5697 41.0401 33.0212 30.0159 31.0484 27.8838C29.3129 26.0086 30.804 24.6865 31.4956 23.9937C32.3634 23.1244 34.8962 20.5931 34.8962 20.5931C34.8962 20.5931 42.4487 27.7589 45.5948 32.6551C48.7409 37.5512 47.6566 41.7881 47.0173 43.1862Z" fill="#009CDE"/>
</g>
</g>
<defs>
<clipPath id="clip0_429_1562">
<rect width="70" height="70" fill="white"/>
</clipPath>
</defs>
</svg>
