<svg width="70" height="70" viewBox="0 0 70 70" fill="none" xmlns="http://www.w3.org/2000/svg">
<g clip-path="url(#clip0_429_1452)">
<mask id="mask0_429_1452" style="mask-type:luminance" maskUnits="userSpaceOnUse" x="0" y="0" width="70" height="70">
<path d="M60 0H10C4.47715 0 0 4.47715 0 10V60C0 65.5229 4.47715 70 10 70H60C65.5229 70 70 65.5229 70 60V10C70 4.47715 65.5229 0 60 0Z" fill="white"/>
</mask>
<g mask="url(#mask0_429_1452)">
<path d="M60 0H10C4.47715 0 0 4.47715 0 10V60C0 65.5229 4.47715 70 10 70H60C65.5229 70 70 65.5229 70 60V10C70 4.47715 65.5229 0 60 0Z" fill="#320B1B"/>
<path d="M94.8609 -15.5156C94.8609 -15.5156 68.4823 -2.95315 73.1642 28.124C78.4171 62.9698 47.9561 77.9251 27.1444 69.3108C6.33268 60.6667 7.78864 28.6923 -31.7792 27.7052C-72.2035 26.7182 -80.7109 -13.5415 -80.7109 -13.5415" stroke="white" stroke-opacity="0.2" stroke-width="2" stroke-miterlimit="10"/>
<path d="M64.371 -24.8789C64.371 -24.8789 52.9517 1.68174 57.0341 28.0928C61.145 54.5038 42.6743 57.6145 35.3374 54.5038C20.0927 48.103 17.1522 13.8254 -7.45638 11.612C-25.9557 9.93705 -50.8498 23.1874 -64.0391 -6.8727" stroke="white" stroke-opacity="0.2" stroke-width="2" stroke-miterlimit="10"/>
<path d="M52.0707 -13.033C52.0707 -13.033 56.1817 14.0959 37.9964 9.25035C17.1562 3.68699 17.4702 -9.35401 -8.90832 2.96914C-18.3007 7.366 -56.0986 8.65215 -48.4762 -15.5156" stroke="white" stroke-opacity="0.2" stroke-width="2" stroke-miterlimit="10"/>
<path d="M38.8766 45.1414C43.2441 45.1414 46.7845 39.6777 46.7845 32.9379C46.7845 26.1981 43.2441 20.7344 38.8766 20.7344C34.5092 20.7344 30.9688 26.1981 30.9688 32.9379C30.9688 39.6777 34.5092 45.1414 38.8766 45.1414Z" stroke="white" stroke-opacity="0.2" stroke-width="2" stroke-miterlimit="10"/>
</g>
<g clip-path="url(#clip1_429_1452)">
<mask id="mask1_429_1452" style="mask-type:luminance" maskUnits="userSpaceOnUse" x="10" y="10" width="50" height="50">
<path d="M60 10H10V60H60V10Z" fill="white"/>
</mask>
<g mask="url(#mask1_429_1452)">
<path d="M35 10C21.1915 10 10 21.1915 10 35C10 48.8039 21.1915 60 35 60C48.8085 60 60 48.8085 60 35C59.9955 21.1915 48.8039 10 35 10ZM28.7511 45.4132H24.5868V24.5822H28.7511V45.4132ZM45.4132 45.4132H32.9155V41.2489H45.4132V45.4132ZM45.4132 37.0799H32.9155V32.9155H45.4132V37.0799ZM45.4132 28.7466H32.9155V24.5822H45.4132V28.7466Z" fill="#DF015B"/>
</g>
</g>
</g>
<defs>
<clipPath id="clip0_429_1452">
<rect width="70" height="70" fill="white"/>
</clipPath>
<clipPath id="clip1_429_1452">
<rect width="50" height="50" fill="white" transform="translate(10 10)"/>
</clipPath>
</defs>
</svg>
