<svg width="70" height="70" viewBox="0 0 70 70" fill="none" xmlns="http://www.w3.org/2000/svg">
<g clip-path="url(#clip0_430_1688)">
<mask id="mask0_430_1688" style="mask-type:luminance" maskUnits="userSpaceOnUse" x="0" y="0" width="70" height="70">
<path d="M60 0H10C4.47715 0 0 4.47715 0 10V60C0 65.5229 4.47715 70 10 70H60C65.5229 70 70 65.5229 70 60V10C70 4.47715 65.5229 0 60 0Z" fill="white"/>
</mask>
<g mask="url(#mask0_430_1688)">
<path d="M60 0H10C4.47715 0 0 4.47715 0 10V60C0 65.5229 4.47715 70 10 70H60C65.5229 70 70 65.5229 70 60V10C70 4.47715 65.5229 0 60 0Z" fill="#383410"/>
<path d="M94.8609 -15.5156C94.8609 -15.5156 68.4823 -2.95315 73.1642 28.124C78.4171 62.9698 47.9561 77.9251 27.1444 69.3108C6.33268 60.6667 7.78864 28.6923 -31.7792 27.7052C-72.2035 26.7182 -80.7109 -13.5415 -80.7109 -13.5415" stroke="white" stroke-opacity="0.2" stroke-width="2" stroke-miterlimit="10"/>
<path d="M64.371 -24.8789C64.371 -24.8789 52.9517 1.68174 57.0341 28.0928C61.145 54.5038 42.6743 57.6145 35.3374 54.5038C20.0927 48.103 17.1522 13.8254 -7.45638 11.612C-25.9557 9.93705 -50.8498 23.1874 -64.0391 -6.8727" stroke="white" stroke-opacity="0.2" stroke-width="2" stroke-miterlimit="10"/>
<path d="M52.0707 -13.033C52.0707 -13.033 56.1817 14.0959 37.9964 9.25035C17.1562 3.68699 17.4702 -9.35401 -8.90832 2.96914C-18.3007 7.366 -56.0986 8.65215 -48.4762 -15.5156" stroke="white" stroke-opacity="0.2" stroke-width="2" stroke-miterlimit="10"/>
<path d="M38.8766 45.1414C43.2441 45.1414 46.7845 39.6777 46.7845 32.9379C46.7845 26.1981 43.2441 20.7344 38.8766 20.7344C34.5092 20.7344 30.9688 26.1981 30.9688 32.9379C30.9688 39.6777 34.5092 45.1414 38.8766 45.1414Z" stroke="white" stroke-opacity="0.2" stroke-width="2" stroke-miterlimit="10"/>
</g>
<g clip-path="url(#clip1_430_1688)">
<path d="M24.874 40.4914L26.3936 45.4218C26.7349 46.5412 26.8773 47.3226 26.8204 47.768C27.6515 45.5423 28.2321 43.1166 28.5624 40.4914H30.3895C29.6039 44.7654 28.5677 47.8713 27.2815 49.8088C26.2793 51.3018 25.1814 52.0482 23.9859 52.0482C23.6672 52.0482 23.2742 51.952 22.8079 51.7607V50.7305C23.0357 50.7639 23.303 50.7817 23.6105 50.7817C24.1682 50.7817 24.6177 50.6272 24.9596 50.3187C25.3692 49.9428 25.5741 49.5204 25.5741 49.0522C25.5741 48.7324 25.4142 48.0762 25.096 47.0836L22.9787 40.4914H24.874ZM13.2445 37.4609L16.0278 45.9528H16.0449L18.8453 37.4609H21.1332C21.6341 41.6723 21.93 45.5256 22.0209 49.0182H20.0919C20.0241 45.7532 19.836 42.6831 19.5286 39.8072H19.5116L16.5743 49.0182H15.1055L12.1859 39.8072H12.1687C11.9521 42.5691 11.8158 45.6393 11.759 49.0182H10C10.1137 44.9089 10.3981 41.0568 10.8534 37.4609H13.2445Z" fill="white"/>
<path d="M44.4231 37.2891C47.4169 37.2891 48.9139 39.2018 48.9139 43.0253C48.9139 45.1031 48.4637 46.6725 47.5642 47.7328C47.402 47.9265 47.2229 48.0939 47.0342 48.249L49.1529 49.2965L49.1508 49.2964L48.3986 50.5955L45.6395 48.9856C45.1822 49.121 44.679 49.1887 44.1306 49.1887C42.6606 49.1887 41.5626 48.7603 40.8365 47.9046C40.0396 46.9579 39.6415 45.4676 39.6415 43.4361C39.6415 41.3701 40.0908 39.8066 40.9907 38.745C41.8101 37.7739 42.9546 37.2891 44.4231 37.2891ZM35.2551 37.3059C36.3251 37.3059 37.2982 37.5923 38.1745 38.1629L37.7293 39.1547C36.9795 38.836 36.24 38.676 35.511 38.676C34.9194 38.676 34.4635 38.8184 34.1457 39.1048C33.8262 39.3889 33.6286 39.7543 33.6286 40.1998C33.6286 40.8843 34.1163 41.478 35.0167 41.9796C35.259 42.1113 35.5745 42.2869 35.8987 42.4689L35.9659 42.5067C35.9771 42.513 35.9883 42.5193 35.9995 42.5256L36.0668 42.5635C36.078 42.5698 36.0893 42.5761 36.1005 42.5824L36.1676 42.6203C36.8493 43.0046 37.4907 43.3714 37.4907 43.3714C38.3911 44.0105 38.8398 44.6919 38.8398 45.8143C38.8398 46.7945 38.4807 47.5991 37.7647 48.2287C37.0482 48.8555 36.0856 49.1697 34.8801 49.1697C33.7527 49.1697 32.66 48.808 31.6016 48.0906L32.0967 47.0978C33.0076 47.5543 33.8318 47.7823 34.5719 47.7823C35.2661 47.7823 35.8094 47.6274 36.2025 47.3214C36.5947 47.0131 36.8298 46.5832 36.8298 46.0378C36.8298 45.3516 36.3525 44.765 35.4768 44.273C35.2494 44.1478 34.9581 43.9845 34.6569 43.8142L34.5899 43.7763C34.4667 43.7066 34.3425 43.6361 34.221 43.567L34.155 43.5295C33.5637 43.1932 33.0525 42.8993 33.0525 42.8993C32.1771 42.259 31.7381 41.572 31.7381 40.44C31.7381 39.5038 32.0655 38.7471 32.7192 38.1713C33.3745 37.5944 34.2198 37.3059 35.2551 37.3059ZM52.4324 37.4606V47.5961H56.0689V49.0178H50.588V37.4606H52.4324ZM58.0897 47.6006V47.8407H57.6897V49.0166H57.3841V47.8407H56.9687V47.6006H58.0897ZM58.8279 47.6006L59.2118 48.5658L59.5644 47.6006H59.9977V49.0166H59.7096V47.9389L59.3082 49.0166H59.1005L58.6985 47.9389H58.683V49.0166H58.4105V47.6006H58.8279ZM44.2347 38.7104C42.4704 38.7104 41.5879 40.1664 41.5879 43.0766C41.5879 44.7435 41.8218 45.9525 42.2886 46.7058C42.721 47.4031 43.3983 47.751 44.3204 47.751C46.0847 47.751 46.9673 46.2837 46.9673 43.3502C46.9673 41.7066 46.7334 40.5081 46.2671 39.7544C45.8341 39.0586 45.1572 38.7104 44.2347 38.7104Z" fill="#F29111"/>
<path d="M39.6113 18.7161C40.1966 17.278 42.243 18.3671 43.0372 18.8695C43.2318 18.9951 43.455 19.2606 43.6782 19.3588C44.0263 19.3725 44.3742 19.3997 44.7229 19.4143C45.377 19.5679 45.9896 19.6936 46.505 19.9871C48.9004 21.3978 50.4597 22.8353 51.8948 25.2096C52.2013 25.7127 52.3546 26.2569 52.6051 26.8011C52.9527 27.6123 53.3434 28.4638 53.7469 29.231C53.9275 29.5946 54.0674 29.9991 54.3182 30.3062C54.4161 30.4466 54.6943 30.4879 54.8607 30.5719C55.3204 30.8098 55.8775 30.9905 56.3098 31.2699C57.1174 31.7733 57.8982 32.3733 58.6079 32.9875C58.8725 33.2247 59.0528 33.5604 59.3048 33.8112V33.9377C59.0811 34.0064 58.8582 34.0767 58.635 34.1329C58.1476 34.2583 57.7158 34.2299 57.243 34.3552C56.9508 34.4399 56.588 34.5518 56.2816 34.5802C56.2952 34.5939 56.3098 34.6087 56.3098 34.6087C56.4901 35.1238 57.4656 35.5428 57.9116 35.8508C58.4535 36.2419 58.9555 36.7162 59.3596 37.2607C59.4991 37.3997 59.6387 37.5262 59.7777 37.6648C59.8747 37.8052 59.902 37.9868 60.0002 38.1121V38.1544C59.8915 38.116 59.8133 38.0428 59.7391 37.9662L59.6948 37.9201C59.6506 37.874 59.606 37.829 59.5551 37.7918C59.2477 37.5818 58.9424 37.3306 58.635 37.1354C58.1065 36.8001 57.4935 36.6055 56.9508 36.2689C56.644 36.0734 56.3515 35.8508 56.059 35.6273C55.7938 35.4313 55.5019 35.0548 55.3353 34.7756C55.2371 34.6213 55.2237 34.4399 55.1115 34.3284C55.1316 34.1419 55.3024 34.0865 55.4747 34.041L55.5144 34.0306C55.5738 34.0151 55.632 33.9997 55.6829 33.9793C56.4068 33.6719 57.2701 33.5604 58.3847 33.5883C58.3428 33.3084 57.6462 32.9597 57.4239 32.7921C56.9776 32.4704 56.505 32.1348 56.0316 31.842C55.7807 31.6886 55.3484 31.5768 55.0705 31.4515C54.6943 31.2978 53.8585 31.1441 53.6502 30.8514C53.2962 30.3899 53.0419 29.8394 52.795 29.2833L52.7277 29.1315C52.7054 29.0809 52.6829 29.0304 52.6605 28.9799C52.3686 28.3103 52.0061 27.6121 51.7136 26.9265C51.5607 26.592 51.4904 26.2984 51.3229 25.9777C50.3067 24.0091 48.8025 22.361 46.9788 21.2019C46.3795 20.8247 45.7111 20.4756 44.9735 20.2385C44.5554 20.1122 44.0537 20.1821 43.6082 20.0851H43.3151C43.0649 20.0147 42.856 19.7494 42.6608 19.6095C42.2296 19.3168 41.7978 19.1202 41.2822 18.9114C41.1015 18.8275 40.5856 18.6324 40.4055 18.786C40.2939 18.8141 40.2374 18.8562 40.21 18.968C40.099 19.1351 40.1966 19.3866 40.2657 19.5406C40.4749 19.9869 40.7671 20.2522 41.0322 20.6293C41.2682 20.9638 41.5613 21.3409 41.7285 21.7046C42.0895 22.4863 42.2576 23.3524 42.592 24.1341C42.7161 24.428 42.9122 24.7625 43.0928 25.0277C43.2458 25.2381 43.524 25.3902 43.6082 25.6567C43.7761 25.9359 43.3571 26.8575 43.2601 27.1502C42.8973 28.2954 42.9676 29.8873 43.3853 30.88C43.3928 30.8973 43.4002 30.9148 43.4076 30.9324L43.4299 30.9853C43.5824 31.3489 43.7457 31.7404 44.1513 31.8421C44.1793 31.8144 44.1513 31.829 44.2066 31.8144C44.3048 31.046 44.3325 30.306 44.5973 29.7049C44.7503 29.329 45.0559 29.0633 45.2654 28.7564C45.4049 28.84 45.4049 29.0921 45.4883 29.2589C45.6695 29.6915 45.8641 30.1658 46.0875 30.5997C46.5461 31.4933 47.0621 32.3596 47.6468 33.1413C47.8426 33.4204 48.1205 33.7277 48.3711 33.9792C48.4827 34.0765 48.6076 34.1328 48.6915 34.2581H48.7189V34.3003C48.3011 34.1462 48.0363 33.7141 47.703 33.4618C47.0758 32.9874 46.3244 32.2751 45.892 31.5915C45.7111 31.1992 45.5156 30.8232 45.3207 30.4327V30.4045C45.2374 30.5161 45.2654 30.6268 45.2237 30.7955C45.0428 31.4933 45.1821 32.2893 44.5554 32.5402C43.8451 32.8342 43.3151 32.0659 43.0928 31.7168C42.3823 30.558 42.1877 28.6032 42.6888 27.0251C42.8 26.6758 42.8152 26.2569 43.0095 25.9779C42.9676 25.7258 42.7733 25.6569 42.6608 25.5023C42.4659 25.2383 42.2989 24.9307 42.1463 24.6374C41.8532 24.0645 41.6446 23.3801 41.422 22.7658C41.3241 22.5148 41.2961 22.263 41.1985 22.0255C41.0322 21.663 40.7254 21.2993 40.4888 20.9786C40.1684 20.5176 39.2352 19.6243 39.6113 18.7161ZM44.179 21.452C44.2162 21.4893 44.2611 21.5219 44.3075 21.554L44.3636 21.5925C44.4384 21.6441 44.5106 21.6987 44.5551 21.773C44.6253 21.8712 44.6384 21.9681 44.7226 22.0666C44.7226 22.4022 44.6253 22.6254 44.4289 22.7644C44.4289 22.7644 44.4155 22.7791 44.4018 22.7928C44.2905 22.569 44.1929 22.3465 44.0808 22.123C43.9427 21.9278 43.7475 21.773 43.635 21.5501H43.6079V21.5221C43.7761 21.4806 43.9427 21.452 44.179 21.452Z" fill="white"/>
</g>
</g>
<defs>
<clipPath id="clip0_430_1688">
<rect width="70" height="70" fill="white"/>
</clipPath>
<clipPath id="clip1_430_1688">
<rect width="50" height="34.082" fill="white" transform="translate(10 18)"/>
</clipPath>
</defs>
</svg>
